[Header]
FileType HTR
DataType HTRS
FileVersion 1
NumSegments 22
NumFrames 4
DataFrameRate 24
EulerRotationOrder ZYX
CalibrationUnits mm
RotationUnits Degrees
GlobalAxisofGravity Y
BoneLengthAxis Y
ScaleFactor 1.0
[SegmentNames&Hierarchy]
reference	GLOBAL
Hips	reference
Spine	Hips
Spine1	Spine
Neck	Spine1
Head	Neck
LeftShoulder	Spine1
LeftArm	LeftShoulder
LeftForeArm	LeftArm
LeftHand	LeftForeArm
RightShoulder	Spine1
RightArm	RightShoulder
RightForeArm	RightArm
RightHand	RightForeArm
LeftUpLeg	Hips
LeftLeg	LeftUpLeg
LeftFoot	LeftLeg
LeftToeBase	LeftFoot
RightUpLeg	Hips
RightLeg	RightUpLeg
RightFoot	RightLeg
RightToeBase	RightFoot
[BasePosition]
reference	0	0	0	0	0	0	1
Hips	0	0	0	0	0	0	1
Spine	0	0	0	0	-0	90	1
Spine1	0	0	0	0	0	0	1
Neck	0	0	0	-7.352327771	-7.352327771	90	1
Head	0	0	0	0	-0	90	1
LeftShoulder	0	0	0	0	0	0	1
LeftArm	0	0	0	0	0	0	1
LeftForeArm	0	0	0	0	0	0	1
LeftHand	0	0	0	0	0	0	1
RightShoulder	0	0	0	0	-0	180	1
RightArm	0	0	0	0	-0	180	1
RightForeArm	0	0	0	0	-0	180	1
RightHand	0	0	0	0	-0	180	1
LeftUpLeg	0	0	0	0	-0	-90	1
LeftLeg	0	0	0	0	-0	-90	1
LeftFoot	0	0	0	66.57146043	-66.57146043	-90	1
LeftToeBase	0	0	0	0	-90	0	1
RightUpLeg	0	0	0	0	-0	-90	1
RightLeg	0	0	0	0	-0	-90	1
RightFoot	0	0	0	66.57146043	-66.57146043	-90	1
RightToeBase	0	0	0	0	-90	0	1
[reference]
41	0	0	0	0	-0	0	1.0
42	0	0	0	0	-0	0	1.0
43	0	0	0	0	-0	0	1.0
44	0	0	0	0	-0	0	1.0
[Hips]
41	0.9345763326	8.232124329	0.1085637063	13.28560066	-93.32740784	-13.14086342	1.0
42	0.8203189969	8.170993805	0.4979511499	-5.139312267	-93.1710434	5.555931091	1.0
43	0.7144859433	8.144864082	0.9411000013	-11.55345154	-92.69647217	12.45127869	1.0
44	0.6178999543	8.129543304	1.413897395	7.097790241	-92.01863098	-5.555316925	1.0
[Spine]
41	0	0.7457100153	0	-7.051765442	-0.01322592795	-88.0832901	1.0
42	0	0.7457100153	0	-7.225939751	-0.3415255547	-87.64883423	1.0
43	0	0.7457100153	0	-7.02218771	-1.299009323	-88.06834412	1.0
44	0	0.7457100153	0	-7.344742775	-2.489733934	-89.35124207	1.0
[Spine1]
41	0	2.140589952	0	8.048218727	0.09126166254	-1.899293303	1.0
42	0	2.140589952	0	7.131213665	-0.08876226097	-0.8954125643	1.0
43	0	2.140589952	0	6.795052052	-0.4922996759	0.4457006752	1.0
44	0	2.140589952	0	6.922082901	-0.9832476974	2.046586275	1.0
[Neck]
41	0	2.32246995	0	-13.48866558	5.116455555	-95.01948547	1.0
42	0	2.32246995	0	-14.22326088	4.82736063	-94.34479523	1.0
43	0	2.32246995	0	-14.65817451	4.515216827	-93.97419739	1.0
44	0	2.32246995	0	-16.51508713	4.302923679	-93.67224121	1.0
[Head]
41	0	1.409579992	0.1818799973	-5.029065609	-1.960140347	-90.94801331	1.0
42	0	1.409579992	0.1818799973	-4.852356911	-2.204545021	-91.7011795	1.0
43	0	1.409579992	0.1818799973	-4.865325451	-2.509860039	-92.03170776	1.0
44	0	1.409579992	0.1818799973	-4.586639404	-2.692859173	-92.01545715	1.0
[LeftShoulder]
41	0.3668199778	1.946700096	-0.02662999928	-16.76383781	-10.23834324	-1.978886843	1.0
42	0.3668199778	1.946700096	-0.02662999928	-16.3757534	-10.93641758	-2.448445082	1.0
43	0.3668199778	1.946700096	-0.02662999928	-16.22114372	-11.33897209	-2.660642624	1.0
44	0.3668199778	1.946700096	-0.02662999928	-15.59493923	-11.9786005	-2.981525898	1.0
[LeftArm]
41	1.140689969	0	0	50.34838486	5.498465061	-70.01181793	1.0
42	1.140689969	0	0	51.40330887	5.960492134	-69.75251007	1.0
43	1.140689969	0	0	51.35507584	6.089086056	-69.82357025	1.0
44	1.140689969	0	0	50.47796631	5.690067291	-69.71994781	1.0
[LeftForeArm]
41	2.749800205	0	0	-147.5381317	-42.74425507	163.9398956	1.0
42	2.749800205	0	0	-145.6705933	-42.53755569	162.7611084	1.0
43	2.749800205	0	0	-146.1908417	-42.79123306	162.6387329	1.0
44	2.749800205	0	0	-145.8013611	-42.86080933	162.2953186	1.0
[LeftHand]
41	2.295179844	0	0	-7.5520854	-22.02619553	1.857228518	1.0
42	2.295179844	0	0	-8.424703598	-22.26533508	0.9997816086	1.0
43	2.295179844	0	0	-9.053218842	-22.39400291	1.41221714	1.0
44	2.295179844	0	0	-9.108131409	-22.31115532	0.08857101947	1.0
[RightShoulder]
41	-0.3601199985	1.946700096	-0.02662999928	-7.17531538	4.222465515	175.5816345	1.0
42	-0.3601199985	1.946700096	-0.02662999928	-7.468994141	3.94691515	175.5910645	1.0
43	-0.3601199985	1.946700096	-0.02662999928	-6.689366817	3.655982256	176.1010437	1.0
44	-0.3601199985	1.946700096	-0.02662999928	-6.521372318	3.099003315	176.094574	1.0
[RightArm]
41	-1.140689969	0	0	55.33940506	-0.6467482448	-105.7139282	1.0
42	-1.140689969	0	0	55.66281128	-0.09496198595	-105.8926544	1.0
43	-1.140689969	0	0	55.31402206	0.7654993534	-106.6931	1.0
44	-1.140689969	0	0	55.84796906	0.8301882744	-105.6740417	1.0
[RightForeArm]
41	-2.749800205	0	0	-108.8775711	40.99934769	31.4727478	1.0
42	-2.749800205	0	0	-108.6005402	41.03660202	31.55696869	1.0
43	-2.749800205	0	0	-110.9256592	41.82221603	30.46905136	1.0
44	-2.749800205	0	0	-110.8482819	41.6637001	30.68019867	1.0
[RightHand]
41	-2.295179844	0	0	-6.308923721	19.7570343	160.5204315	1.0
42	-2.295179844	0	0	-6.199317932	19.43924713	159.8217468	1.0
43	-2.295179844	0	0	-5.481976509	19.48431778	159.2783356	1.0
44	-2.295179844	0	0	-5.956787109	19.59664917	159.7692871	1.0
[LeftUpLeg]
41	0.9094099998	0	0	-8.711853981	-1.903147578	114.0617218	1.0
42	0.9094099998	0	0	-9.770940781	-0.4195579886	113.9551392	1.0
43	0.9094099998	0	0	-12.77520084	4.824928284	110.9731827	1.0
44	0.9094099998	0	0	-17.24032593	5.075514793	107.3712616	1.0
[LeftLeg]
41	0	-4.498080254	0	18.28065491	2.805308819	84.23986053	1.0
42	0	-4.498080254	0	23.69650269	2.722541571	80.30899811	1.0
43	0	-4.498080254	0	30.82835197	4.532392502	81.89485931	1.0
44	0	-4.498080254	0	39.88209534	-5.5588727	72.36031342	1.0
[LeftFoot]
41	0	-3.729400158	0	6.869781494	106.1115723	43.16325378	1.0
42	0	-3.729400158	0	-3.646467924	105.3557587	42.56245804	1.0
43	0	-3.729400158	0	-19.87296295	97.88397217	31.14222717	1.0
44	0	-3.729400158	0	-24.69261169	109.4755478	33.00606918	1.0
[LeftToeBase]
41	0	-0.5911099911	1.364109993	0	0	0	1.0
42	0	-0.5911099911	1.364109993	0	0	0	1.0
43	0	-0.5911099911	1.364109993	0	0	0	1.0
44	0	-0.5911099911	1.364109993	0	0	0	1.0
[RightUpLeg]
41	-0.9094099998	0	0	-6.49202776	-11.84236336	83.22299957	1.0
42	-0.9094099998	0	0	-5.168207169	-10.66807175	81.03691101	1.0
43	-0.9094099998	0	0	-3.682498932	-10.27947807	77.96340179	1.0
44	-0.9094099998	0	0	-3.038789034	-9.862778664	74.22841644	1.0
[RightLeg]
41	0	-4.498080254	0	36.18535233	4.782883644	81.41077423	1.0
42	0	-4.498080254	0	34.47321701	3.155798912	80.67417145	1.0
43	0	-4.498080254	0	31.75954056	1.916885376	80.22273254	1.0
44	0	-4.498080254	0	29.35993004	-0.189654246	79.12146759	1.0
[RightFoot]
41	0	-3.729400158	0	52.24744034	50.32461548	110.3726883	1.0
42	0	-3.729400158	0	55.89227676	47.663517	113.9241867	1.0
43	0	-3.729400158	0	60.31238556	44.76721954	116.344635	1.0
44	0	-3.729400158	0	67.13870239	42.18050385	116.9584961	1.0
[RightToeBase]
41	0	-0.5911099911	1.364109993	0	0	0	1.0
42	0	-0.5911099911	1.364109993	0	0	0	1.0
43	0	-0.5911099911	1.364109993	0	0	0	1.0
44	0	-0.5911099911	1.364109993	0	0	0	1.0
[EndOfFile]
